<svg xmlns="http://www.w3.org/2000/svg" viewBox="0 0 16.54 19.06"><defs><style>.cls-1{fill:#ed1c24;}</style></defs><title>bleeding</title><g id="Layer_2" data-name="Layer 2"><g id="Layer_1-2" data-name="Layer 1"><path class="cls-1" d="M11.08,0a8.24,8.24,0,0,0,1.68,3.09,6.68,6.68,0,0,1,1.15,2.29A2.83,2.83,0,0,1,11.45,9,2.9,2.9,0,0,1,8.24,5.37a6.09,6.09,0,0,1,.95-2l.58-.82A6.84,6.84,0,0,0,11.08,0Zm3.34,10.29-.29.41a3.08,3.08,0,0,0-.48,1,1.45,1.45,0,0,0,1.61,1.81,1.42,1.42,0,0,0,1.23-1.81,3.33,3.33,0,0,0-.58-1.14A4.1,4.1,0,0,1,15.07,9,3.31,3.31,0,0,1,14.42,10.29Zm-12-1c-.29.41-.59.82-.87,1.24a9,9,0,0,0-1.43,3A4.38,4.38,0,0,0,5,19a4.28,4.28,0,0,0,3.72-5.46A10.3,10.3,0,0,0,7,10.1C6,8.65,4.79,7.27,4.43,5.43A10.14,10.14,0,0,1,2.45,9.31Z"/></g></g></svg>