<?xml version="1.0" encoding="utf-8"?>
<!-- Generator: Adobe Illustrator 22.1.0, SVG Export Plug-In . SVG Version: 6.00 Build 0)  -->
<svg version="1.1" id="Layer_1" xmlns="http://www.w3.org/2000/svg" xmlns:xlink="http://www.w3.org/1999/xlink" x="0px" y="0px"
	 viewBox="0 0 200 700" style="enable-background:new 0 0 200 700;" xml:space="preserve">
<style type="text/css">
	.st0{fill:#EFEFEF;}
</style>
<g id="Layer_2_1_">
	<g id="Objects">
		<g id="left_elbow">
			<path class="st0" d="M199.6,277.3c0.4-10.2,0.6-17.7-0.1-19.1c-1.9-4.2-3.6-13.6-3-20.7c-5.6,2.4-11.3,4.2-17.3,5.6
				c-5,1.1-10,1.9-15.1,2.5c0.6,2.5,1.4,4.9,2.4,7.4c1.1,2.4,0.9,8.8,0.5,16.5C175,272.2,188,276.4,199.6,277.3z"/>
		</g>
		<g id="left_hand">
			<path class="st0" d="M185.7,352.1c-3-0.9-5.9-1.8-8.4-2.6c0.2,0.9,0.2,1.7,0.3,2.6c0,5.3-2.9,6.6-5.5,11.6s0.6,16.1,0.6,16.1
				c-2.2,14.9-0.5,14.9,2.2,14.8s6.6-12.9,6.6-12.9l4-1.9c0,0,3.2,3.5,0.8,9s-16.4,12.9-14.9,14.8s6.5-0.2,6.5-0.2
				s-9.7,9.3-8.5,10.5c0.8,0.7,1.8,1,2.9,0.8c0,0-2.7,3.2-0.5,4.6s8.7-3.2,8.7-3.2c8.9-1.3,17.4-22.8,18.7-25.3
				c1.1-2.1-1.3-23.5-2.5-36.1C193.3,354.1,189.6,353.2,185.7,352.1z"/>
		</g>
		<g id="head">
			<path class="st0" d="M124.1,80.5c4.3-5.8,4.9-16.4,4.9-16.4s0.5,2.4,2.9,0.8s3.2-17.9,2.6-19.3s-3.4-1-3.4-1s3.8-21.2-2.7-32.2
				C121.8,1.4,106.2,0,100,0S78.3,1.6,71.7,12.5c-6.6,10.9-2.8,32.2-2.8,32.2s-2.7-0.5-3.3,1C65,47.2,65.8,63.4,68.1,65
				s2.9-0.8,2.9-0.8s0.5,10.3,4.8,16.1c8.2,1.7,16.5,2.5,24.8,2.5C108.5,82.8,116.4,82,124.1,80.5z"/>
		</g>
		<g id="abdomen">
			<path class="st0" d="M157.9,312.2c-2.2-15.5-4.4-28.8-5.5-33.2c-2.6-10.5-6.3-34.7-0.9-48.8c0.2-0.6,0.4-1.1,0.6-1.7
				c-15.4,6.7-32,10.1-48.7,9.9c-18.9-0.2-37.7-3.6-55.4-10.3c0.2,0.7,0.4,1.4,0.7,2c5.4,14,1.6,38.3-0.9,48.8
				c-1.1,4.4-3.2,17.7-5.5,33C59.2,317.8,109.8,332,157.9,312.2z"/>
		</g>
		<g id="chest_right">
			<path class="st0" d="M47.2,225.8c16.8,6.5,34.5,10,52.4,10.6V116.8c-9.9-0.1-19.7-1.8-29-5.2c-7.1,3.6-17.9,7.3-20.2,8.1
				c-0.4,14.8-1.8,52-5.1,80.3C45.4,205.2,44.9,216.3,47.2,225.8z"/>
		</g>
		<g id="upper_arm_left">
			<path class="st0" d="M155.4,188.8c0.3,3.3,0.6,6.7,1,9.8c2.2,4.4,4.3,16.1,4.6,25.1c0.3,6.8,1.2,13.4,2.9,20
				c6.7-0.7,20.5-2.7,33.1-8.5c1.3-7.7,2.6-43.8-1.3-53.4c-1.8-4.4-1.8-10.7-2.3-17.8c-0.5,0.5-0.9,1-1.4,1.4
				C176.8,180.6,164.5,188.5,155.4,188.8z"/>
		</g>
		<g id="ankle_left">
			<path class="st0" d="M126.1,618.7c-0.2,7.7-0.7,13.4-0.8,14.5c-0.3,3-3.3,6.1-5.1,13c-1.5,6.5,2.8,9.3,2,18.5
				c9.4-0.7,18.7-2.1,27.9-4c-0.2-2.2-0.2-4.2-0.3-6.1c-0.1-2.7-2.9-7.4-2.9-7.4c-0.2-3.1,0.7-13,2.3-23.9
				C141.7,621.3,133.9,619.8,126.1,618.7z"/>
		</g>
		<g id="ankle_right">
			<path class="st0" d="M79.7,646.3c-1.6-6.9-4.7-9.9-5-13c-0.1-1.1-0.5-6.7-0.8-14.1c-7.9,1.3-15.6,3.3-23.1,6
				c1.4,10.2,2.2,19.1,2,22.1c0,0-2.8,4.6-2.9,7.4c-0.1,1.5,0,3.1-0.2,4.9c9.2,2,18.4,3.5,27.8,4.5
				C77.1,655.5,81.2,652.6,79.7,646.3z"/>
		</g>
		<g id="elbow_right">
			<path class="st0" d="M33.3,252.9c1-2.3,1.8-4.8,2.4-7.3c-5.2-0.5-10.2-1.4-15.3-2.5c-5.9-1.3-11.5-3.1-17-5.5
				c0.6,7.1-1.1,16.4-3,20.6c-0.6,1.3-0.5,8.9,0,19.1c11.7-1,24.8-5.2,32.5-8C32.5,261.6,32.3,255.3,33.3,252.9z"/>
		</g>
		<g id="chest_left">
			<path class="st0" d="M101.5,236.5c16.1,0.2,33.9-2.4,51.2-10.5c2.1-8.4,1.9-18.3,2-24c-3.4-28.6-4.9-67.3-5.4-82.4
				c-6.7-2.2-13.1-4.7-19.5-7.8c-9.1,3.2-18.7,4.8-28.4,4.9L101.5,236.5z"/>
		</g>
		<g id="upper_arm_right">
			<path class="st0" d="M6.8,164.1c-0.5,7.1-0.5,13.1-2.3,17.6c-4,9.6-2.6,46.2-1.3,53.5c12.6,5.7,26.6,7.7,33.1,8.4
				c1.6-6.6,2.6-13.2,2.8-20c0.1-8.5,2.1-19.3,4.1-24.2c0.4-3.4,0.8-7,1.1-10.6c-9.1-0.3-21.3-8.2-36.4-23.4L6.8,164.1z"/>
		</g>
		<g id="upper_leg_right">
			<path class="st0" d="M35.7,372.1c-0.3,22.5,4.4,87.1,4.7,105.9c13.9,4.4,28.1,7.4,42.7,9c3.7-15.5,5.7-45.7,5.7-59.6
				c0-14.9,5-25.5,7.4-34.1c0.8-3.2,1.4-6.5,1.6-9.7C76.6,382.8,55.6,379,35.7,372.1z"/>
		</g>
		<g id="pelvis">
			<path class="st0" d="M164.3,370.1c0-0.1,0-0.3,0-0.5c-0.4-11.8-3.2-35.2-6.2-55.4c-18.5,7.5-37.3,10.1-54.5,10.1
				c-21-0.1-41.9-3.6-61.8-10.4c-2.8,20.3-5.8,43.7-6.2,55.6c0,0.1,0,0.3,0,0.4c20,6.9,41,10.8,62.1,11.5c0.4-5.3,0.3-9.6,0.3-9.6
				l1.9-0.8l1.9,0.8c0,0-0.1,4.3,0.3,9.6C121.8,381.8,143.3,379,164.3,370.1z"/>
		</g>
		<g id="neck">
			<path class="st0" d="M127.5,110.5c-1.4-0.7-2.7-1.7-3.8-2.9c-2.9-4.2-1.8-21.7-1.6-24.5c-7.1,1.2-14.3,1.8-21.5,1.8
				c-7.6,0-15.2-0.7-22.7-2c0.2,2,1.4,20.3-1.6,24.7c-0.9,1.1-2.1,2-3.4,2.7C90.6,116.2,109.7,116.3,127.5,110.5L127.5,110.5z"/>
		</g>
		<g id="hand_right">
			<path class="st0" d="M22.1,403.4c0,0,4.9,2.1,6.5,0.2s-12.4-9.3-14.9-14.8s0.8-9,0.8-9l4,1.9c0,0,3.8,12.7,6.6,12.9
				c2.7,0.2,4.6,0.2,2.2-14.8c0,0,3.2-11.1,0.6-16.1c-2.6-4.9-5.5-6.3-5.5-11.6c0-0.9,0.1-1.8,0.3-2.7c-2.6,0.9-5.6,1.8-8.7,2.7
				c-3.8,1.1-7.4,1.9-10.8,2.6c-1.3,12.5-3.7,34-2.6,36.2c1.3,2.4,9.8,24,18.7,25.3c0,0,6.5,4.6,8.7,3.2s-0.5-4.6-0.5-4.6
				c1,0.2,2.1-0.1,2.9-0.8C31.7,412.7,22.1,403.4,22.1,403.4z"/>
		</g>
		<g id="right_shoulder">
			<path class="st0" d="M44.5,186.8c2.3-25.6,3.3-54.2,3.7-67c-5.6,0.2-24.7,2-33.9,16.9c-5.3,8.5-6.8,17.1-7.5,24.7
				C18.6,173.6,33.5,186.5,44.5,186.8z"/>
		</g>
		<g id="lower_arm_right">
			<path class="st0" d="M3.6,352.6c6.7-1.4,13.2-3.2,19.7-5.6c2-10.1,7.7-30.8,9.8-43.3c1.4-8.5,0.6-21.5,0-32.3
				c-3.2,1.1-7.2,2.5-11.6,3.7c-6.9,2-13.9,3.4-20.9,4c1.1,24.7,4,63.3,3.3,70.5C3.8,350.6,3.7,351.6,3.6,352.6z"/>
		</g>
		<g id="lower_leg_right">
			<path class="st0" d="M50.6,623c7.6-2.7,15.4-4.6,23.3-6c-0.3-12.5-0.2-29.4,2.3-39.6c3.4-14.3,3.6-34.8,1.2-48
				c-14.4-0.9-28.7-2.6-42.9-5.1c-0.3,5.4-0.6,11.2-0.6,17.8c0,32.8,5.5,35.6,10.1,49.3C46.5,598.5,49,611.3,50.6,623z"/>
		</g>
		<g id="foot_right">
			<path class="st0" d="M77.9,666.2c-9.5-1-18.9-2.5-28.2-4.5c-0.1,0.9-0.3,1.7-0.5,2.5c-1,3.3-10.8,27.2-7.9,30.6
				c2.9,3.4,20,3.7,25.9,3.2c0,0,1.4,2.7,7.4,1.8s5.2-21.9,3.3-32.8C77.9,666.7,77.9,666.5,77.9,666.2z"/>
		</g>
		<g id="foot_left">
			<path class="st0" d="M150.6,662.7c-9.4,2-18.9,3.3-28.5,4c0,0,0,0,0,0.1c-1.8,10.9-2.6,31.9,3.3,32.8c6,1,7.4-1.8,7.4-1.8
				c6,0.5,23.1,0.2,26-3.2s-7-27.2-7.9-30.6C150.8,663.7,150.7,663.2,150.6,662.7z"/>
		</g>
		<g id="shoulder_left">
			<path class="st0" d="M155.2,186.8c11.1-0.3,26.2-13.3,37.8-25.6c-0.7-7.7-2.2-16.2-7.5-24.5c-9.3-15.2-28.9-16.8-34.2-16.9
				C151.9,132.5,152.9,161.2,155.2,186.8z"/>
		</g>
		<g id="lower_arm_left">
			<path class="st0" d="M196.2,349.8c-0.6-7.2,2.2-45.7,3.3-70.5c-7.2-0.7-14.3-2-21.1-4.1c-4.2-1.2-8.2-2.5-11.3-3.6
				c-0.6,10.8-1.4,23.7,0,32.2c2.1,12.5,7.8,33.3,9.8,43.4c6.5,2.2,13,4.1,19.6,5.6C196.4,351.6,196.3,350.6,196.2,349.8z"/>
		</g>
		<g id="knee_right">
			<path class="st0" d="M75.7,522.3c-4-11.6,1.9-18.1,6.3-32c0.1-0.5,0.3-0.9,0.4-1.4c-14.3-1.5-28.4-4.5-42.1-8.8
				c0,0.6,0,1.2-0.1,1.7c-0.6,8.9-4,20.5-5.6,40.5c14.1,2.4,28.2,4.1,42.4,5.1C76.7,525.7,76.3,524.1,75.7,522.3z"/>
		</g>
		<g id="lower_leg_left">
			<path class="st0" d="M166.1,542.1c0-6.6-0.2-12.5-0.6-17.9c-14.2,2.9-28.5,4.8-43,5.6c-2.3,13.2-2.1,33.4,1.3,47.6
				c2.4,10.2,2.6,26.8,2.3,39.3c7.9,1.1,15.8,2.6,23.5,4.6c1.7-11.2,3.9-23.2,6.3-29.9C160.6,577.8,166.1,575,166.1,542.1z"/>
		</g>
		<g id="knee_left">
			<path class="st0" d="M118.1,490.3c4.3,14,10.3,20.4,6.3,32c-0.6,1.8-1.1,3.6-1.4,5.5c14.3-0.7,28.5-2.5,42.5-5.5
				c-1.5-20-5-31.7-5.6-40.5c0-0.4-0.1-0.8-0.1-1.3c-13.4,4.9-27.6,8.1-41.9,9.1C117.9,489.8,118,490.1,118.1,490.3z"/>
		</g>
		<g id="thigh_left">
			<path class="st0" d="M102.5,383.6c0.3,3.2,0.8,6.5,1.6,9.6c2.4,8.7,7.4,19.2,7.4,34.1c0,14,2,44.8,5.9,60.2
				c14.6-1,28.8-4.1,42.5-9.2c0.1-18.3,5-83.3,4.7-106.1c-20.4,8.6-41.5,11.4-60.5,11.4H102.5z"/>
		</g>
	</g>
</g>
</svg>
