<svg xmlns="http://www.w3.org/2000/svg" viewBox="0 0 23.37 23.27"><defs><style>.cls-1{fill:#ed1c24;}</style></defs><title>bruise</title><g id="Layer_2" data-name="Layer 2"><g id="Layer_1-2" data-name="Layer 1"><path class="cls-1" d="M12.1,16.89c.18,1.43.36,2.76.5,4.09a6.2,6.2,0,0,1,0,1.36,1,1,0,0,1-1.06.93.94.94,0,0,1-1-1c0-1,.21-2.06.31-3.09s.18-1.81.21-2.71a1.55,1.55,0,0,0-.29-.84.93.93,0,0,0-1.59-.13,13.09,13.09,0,0,0-1,1.52c-.32.54-.61,1.1-1,1.61-.23.33-.65.58-1,.26A1.17,1.17,0,0,1,6,17.91c.12-.52.41-1,.58-1.51.24-.72-.12-1.18-.87-1a2.59,2.59,0,0,0-1.16.52c-.73.57-1.39,1.23-2.1,1.83a7.69,7.69,0,0,1-1.09.81.78.78,0,0,1-1.11-.13.91.91,0,0,1,0-1.25,4.32,4.32,0,0,1,1.06-.84C2.17,15.8,3.12,15.4,4,14.9a8.46,8.46,0,0,0,1.87-1.36,1.75,1.75,0,0,0,.35-1.34c0-.22-.63-.4-1-.51S4.39,11.6,4,11.47s-.55-.37-.56-.57a.9.9,0,0,1,.48-.66,6.91,6.91,0,0,1,1.3-.35c.36-.09.73-.14,1.07-.26A.91.91,0,0,0,6.67,8a7.42,7.42,0,0,0-1.13-.85c-.47-.31-1-.58-1.43-.9S3.38,5.57,3.64,5s.8-.42,1.26-.29,1,.37,1.53.52c1.13.34,1.64.09,2.08-1,.15-.38.26-.78.42-1.16s.36-.85.92-.72.54.57.52,1c0,.69-.17,1.38-.15,2.06,0,.36.17.89.43,1A.91.91,0,0,0,11.9,6a24.27,24.27,0,0,0,.89-2.42c.25-.79.41-1.6.67-2.37a2,2,0,0,1,.59-1,1.27,1.27,0,0,1,1-.15,1,1,0,0,1,.35.85,12.39,12.39,0,0,1-.61,1.84,15.7,15.7,0,0,0-.61,1.83,1.09,1.09,0,0,0,1.46,1.34A3.91,3.91,0,0,0,17.09,5c.74-.69,1.38-1.5,2.1-2.21a8.64,8.64,0,0,1,1.58-1.33,1.56,1.56,0,0,1,2.48,1.1,2.82,2.82,0,0,1-1.66,3.52c-.79.35-1.63.59-2.42.92a6.22,6.22,0,0,0-1.47.82,1.26,1.26,0,0,0,0,2.15c.52.41,1.14.7,1.7,1.07a5.76,5.76,0,0,1,1.18.88,1.07,1.07,0,0,1,.21.93,1.08,1.08,0,0,1-.8.49,9.87,9.87,0,0,1-1.61-.16c-.3,0-.6-.08-.9-.08-.86,0-1.37.46-1.31,1.33a14.15,14.15,0,0,0,.44,2.09c.14.6.34,1.2.44,1.82a.82.82,0,0,1-.65,1,.81.81,0,0,1-1-.6c-.25-.67-.43-1.36-.65-2-.15-.45-.27-.91-.46-1.34s-.49-.84-1-.68a1.78,1.78,0,0,0-1,.79A4.42,4.42,0,0,0,12.1,16.89Z"/></g></g></svg>