<svg xmlns="http://www.w3.org/2000/svg" viewBox="0 0 20.11 20.11"><defs><style>.cls-1{fill:#ed1c24;}</style></defs><title>fracture</title><g id="Layer_2" data-name="Layer 2"><g id="Layer_1-2" data-name="Layer 1"><path class="cls-1" d="M18.44,17.76c-.45.06-.62.22-.68.67A1.91,1.91,0,0,1,14,18.24a2,2,0,0,1,.09-.65.74.74,0,0,0-.2-.83l-3.65-3.64a.59.59,0,0,1-.14-.23c-.15-.46-.27-.92-.43-1.38a.8.8,0,0,1,.09-.83A2.47,2.47,0,0,0,10,8.32L9.69,7a.88.88,0,0,1,0-.17l0,0c.26.27.52.55.79.82l6.22,6.22a.82.82,0,0,0,.91.24,1.92,1.92,0,1,1,.81,3.73Zm-9.67-6,.09-.05a10,10,0,0,0-.41-1.2,1,1,0,0,1,.11-1.15,2.1,2.1,0,0,0,.35-1.8c-.15-.65-.31-1.3-.47-1.95a.49.49,0,0,0-.14-.21c-.66-.66-1.31-1.32-2-2a.82.82,0,0,1-.23-.92A1.82,1.82,0,0,0,5.62.59,1.79,1.79,0,0,0,3.77.08,1.89,1.89,0,0,0,2.32,1.75a.61.61,0,0,1-.48.56l-.27,0A1.92,1.92,0,1,0,2.5,6.06a.76.76,0,0,1,.85.21l5,5Zm.22,3a.38.38,0,0,0-.32.3L8,17.4a.38.38,0,0,0,.26.48.37.37,0,0,0,.48-.25c.23-.8.46-1.6.68-2.41C9.5,15,9.3,14.76,9,14.76Zm-1.44-1.6a.38.38,0,0,0-.47-.26l-1,.27-1.41.4a.39.39,0,0,0,.12.77H4.9c.8-.23,1.61-.45,2.41-.69A.37.37,0,0,0,7.55,13.16ZM9.32,4.69a.41.41,0,0,0,.49-.34c.22-.75.43-1.49.64-2.24a.4.4,0,0,0-.35-.55c-.19,0-.33.1-.4.33-.21.75-.43,1.5-.64,2.25A.41.41,0,0,0,9.32,4.69Zm1.59,1.6a.41.41,0,0,0,.52.25l1-.27,1.35-.37A.41.41,0,0,0,14,5.46a.42.42,0,0,0-.41-.33l-.15,0-2.26.63A.4.4,0,0,0,10.91,6.29Zm-.77-1.2a.4.4,0,0,0,.43.23.7.7,0,0,0,.22-.12c.47-.46.94-.92,1.4-1.39a.39.39,0,1,0-.55-.54c-.17.15-.32.31-.49.47l-.91.91A.36.36,0,0,0,10.14,5.09ZM8.4,14.49a1.24,1.24,0,0,0-.27-.32.33.33,0,0,0-.44.08L6.32,15.61a.37.37,0,0,0,0,.58.4.4,0,0,0,.6,0l1.33-1.33A2.44,2.44,0,0,0,8.4,14.49Z"/></g></g></svg>