<svg xmlns="http://www.w3.org/2000/svg" viewBox="0 0 21.47 21.47"><defs><style>.cls-1{fill:#ed1c24;}</style></defs><title>laceration</title><g id="Layer_2" data-name="Layer 2"><g id="Layer_1-2" data-name="Layer 1"><path class="cls-1" d="M4.83,13.74,8,10.63C7.4,10.11,6.82,9.57,6.25,9a1,1,0,0,1,0-1.58c.38-.4.78-.8,1.19-1.19A1,1,0,0,1,9,6.23c.57.56,1.11,1.15,1.6,1.67l3.17-3.17c-.48-.46-1.06-1-1.62-1.56a1,1,0,0,1,0-1.58c.4-.42.81-.84,1.24-1.24a1,1,0,0,1,1.48,0c.59.58,1.13,1.19,1.77,1.86C17.18,1.58,17.71,1,18.25.46a1,1,0,0,1,1.67,0c.41.39.81.78,1.19,1.19a.93.93,0,0,1,0,1.48c-.57.58-1.18,1.13-1.86,1.79C19.89,5.5,20.46,6,21,6.57a1,1,0,0,1,0,1.67c-.36.37-.73.74-1.1,1.1a1,1,0,0,1-1.67,0c-.55-.55-1.08-1.11-1.59-1.64L13.5,10.86c.51.48,1.07,1,1.61,1.51s.67,1.1,0,1.76c-.37.37-.73.74-1.11,1.1a1,1,0,0,1-1.57,0c-.57-.56-1.1-1.14-1.62-1.69L7.65,16.73c.47.43,1,.9,1.52,1.4.8.78.78,1.18,0,2-.32.32-.64.65-1,1a1,1,0,0,1-1.58,0c-.55-.54-1.09-1.1-1.7-1.73-.56.55-1.08,1.08-1.61,1.61-.72.71-1.14.71-1.86,0-.35-.35-.71-.69-1-1.05a1,1,0,0,1,0-1.54c.56-.57,1.13-1.12,1.85-1.83C1.65,16,1.09,15.53.57,15c-.77-.75-.76-1.16,0-1.94l.78-.78c.79-.79,1.17-.8,1.95,0,.47.47.94,1,1.42,1.42A.28.28,0,0,0,4.83,13.74Z"/></g></g></svg>